# xmcd
#
# Track frame offsets: 
#        150
#        14122
#        34924
#        45034
#        59282
#        77148
#        86636
#        104190
#        119848
#        133654
#        155029
#        171362
#        186420
#
# Disc length: 2727 seconds
#
# Revision: 5
# Processed by: cddbd v1.4PL0 Copyright (c) Steve Scherf et al.
# Submitted via: ExactAudioCopy v0.90b4
#
DISCID=be0aa50d
DTITLE=Vince Gill - The Key
DYEAR=1998
DGENRE=Country
TTITLE0=Don't Come Cryin' To Me
TTITLE1=If You Ever Have Forever In Mind
TTITLE2=I Never Really Knew You
TTITLE3=Kindly Keep It Country
TTITLE4=All Those Years
TTITLE5=I'll Take Texas
TTITLE6=My Kind Of Woman, My Kind Of Man (with Patty Loveless)
TTITLE7=There's Not Much Love Here Anymore
TTITLE8=Let Her In
TTITLE9=The Hills Of Caroline
TTITLE10=Live To Tell It All
TTITLE11=What They All Call Love
TTITLE12=The Key To Life
EXTD=
EXTT0=
EXTT1=
EXTT2=
EXTT3=
EXTT4=
EXTT5=
EXTT6=
EXTT7=
EXTT8=
EXTT9=
EXTT10=
EXTT11=
EXTT12=
PLAYORDER=
